<svg id="Layer_1" data-name="Layer 1" xmlns="http://www.w3.org/2000/svg" viewBox="0 0 17.6 7.09"><defs><style>.cls-1,.cls-2{fill:#fff;}.cls-2{font-size:3.16px;font-family:BellMT, Bell MT;}.cls-3{font-size:3.54px;}.cls-4{stroke:#000;stroke-miterlimit:10;}.cls-5{letter-spacing:-0.08em;}</style></defs><polygon class="cls-1" points="1.27 0 1.26 7.09 0.71 6.56 0.71 3.76 0.43 4.08 0.43 6.28 0 5.73 0 1.43 0.4 0.94 0.42 3.44 0.72 3.11 0.71 0.58 1.27 0"/><path class="cls-1" d="M6876.06,7156.1l.24-.35v-2l-.4-.6-.66.78v5.78l.33.24v-3.33l.3-.36,0,2.73.39-.62,0-1.92Zm-.17-.56-.32.38v-1.53l.34-.4Z" transform="translate(-6869.5 -7153.12)"/><text class="cls-2" transform="translate(1.24 5.63) scale(0.34 1)">ONOR <tspan class="cls-3" x="9.92" y="0">&amp;</tspan><tspan class="cls-4" x="12.35" y="0"> </tspan></text><text class="cls-2" transform="translate(6.79 5.63) scale(0.34 1)"><tspan xml:space="preserve">ESPECT  </tspan><tspan class="cls-5" x="13.65" y="0">A</tspan><tspan x="15.58" y="0">THLETES</tspan></text></svg>