<svg id="Layer_1" data-name="Layer 1" xmlns="http://www.w3.org/2000/svg" viewBox="0 0 600 637.61"><defs><style>.cls-1{stroke:#000;stroke-miterlimit:10;}.cls-2{font-size:112px;fill:#fff;font-family:BellMT, Bell MT;}.cls-3{letter-spacing:-0.08em;}</style></defs><polygon class="cls-1" points="315.21 0.71 311.28 528.93 197.21 489.66 197.21 281.1 136.71 304.56 136.71 468.76 46.84 427.94 46.84 106.95 130.88 70.97 134.81 257.51 199.35 232.42 196.08 43.91 315.21 0.71"/><path class="cls-1" d="M7365.74,7097.7l51-23.86,3.27-132.87-87.69-40.61-142,52.36v393.21l71.35,15.88,1.67-225.81,65.09-24.88,3.93,185.89,84.76-42.53-3.92-130.26Zm-36.66-38.29-69.38,26.18V6981.52l72.66-26.84Z" transform="translate(-6951.04 -6845.97)"/><text class="cls-2" transform="translate(0 607.75)"><tspan class="cls-3">A</tspan><tspan x="68.25" y="0">THLETES</tspan></text></svg>